<svg xmlns="http://www.w3.org/2000/svg" xmlns:xlink="http://www.w3.org/1999/xlink" width="1080" zoomAndPan="magnify" viewBox="0 0 810 809.999993" height="1080" preserveAspectRatio="xMidYMid meet" version="1.0"><defs><g/><clipPath id="b3a2e2446b"><path d="M 52.621094 263.148438 L 267.871094 263.148438 L 267.871094 546.648438 L 52.621094 546.648438 Z M 52.621094 263.148438 " clip-rule="nonzero"/></clipPath></defs><g clip-path="url(#b3a2e2446b)"><path fill="#38b6ff" d="M 164.640625 265.59375 C 162.496094 263.199219 158.359375 263.199219 156.214844 265.59375 C 151.992188 270.296875 52.835938 381.457031 52.835938 439.253906 C 52.835938 498.582031 101.101562 546.847656 160.429688 546.847656 C 219.753906 546.847656 268.019531 498.582031 268.019531 439.253906 C 268.019531 381.457031 168.859375 270.296875 164.640625 265.59375 Z M 160.429688 535.519531 C 107.347656 535.519531 64.164062 492.335938 64.164062 439.253906 C 64.164062 392.140625 141.355469 300.011719 160.429688 277.972656 C 179.5 300.003906 256.691406 392.121094 256.691406 439.253906 C 256.691406 492.335938 213.507812 535.519531 160.429688 535.519531 Z M 160.429688 535.519531 " fill-opacity="1" fill-rule="nonzero"/></g><path fill="#38b6ff" d="M 160.429688 490.21875 C 132.328125 490.21875 109.464844 467.359375 109.464844 439.253906 C 109.464844 436.125 106.925781 433.59375 103.800781 433.59375 C 100.675781 433.59375 98.136719 436.125 98.136719 439.253906 C 98.136719 473.597656 126.082031 501.542969 160.429688 501.542969 C 163.554688 501.542969 166.089844 499.011719 166.089844 495.882812 C 166.089844 492.75 163.554688 490.21875 160.429688 490.21875 Z M 160.429688 490.21875 " fill-opacity="1" fill-rule="nonzero"/><g fill="#000000" fill-opacity="1"><g transform="translate(286.481737, 440.711589)"><g><path d="M 32.59375 0.96875 C 27 0.96875 22.15625 -0.304688 18.0625 -2.859375 C 13.976562 -5.421875 10.828125 -9.28125 8.609375 -14.4375 C 6.390625 -19.59375 5.28125 -25.96875 5.28125 -33.5625 C 5.28125 -41.21875 6.609375 -47.625 9.265625 -52.78125 C 11.929688 -57.9375 15.628906 -61.773438 20.359375 -64.296875 C 25.085938 -66.828125 30.578125 -68.09375 36.828125 -68.09375 C 43.253906 -68.09375 48.734375 -66.894531 53.265625 -64.5 C 57.796875 -62.113281 60.976562 -58.566406 62.8125 -53.859375 L 53.125 -47.984375 L 51.96875 -48.03125 C 50.59375 -51.03125 48.65625 -53.21875 46.15625 -54.59375 C 43.664062 -55.96875 40.554688 -56.65625 36.828125 -56.65625 C 31.035156 -56.65625 26.609375 -54.828125 23.546875 -51.171875 C 20.492188 -47.515625 18.96875 -41.644531 18.96875 -33.5625 C 18.96875 -25.445312 20.394531 -19.550781 23.25 -15.875 C 26.113281 -12.207031 30.347656 -10.375 35.953125 -10.375 C 40.785156 -10.375 44.347656 -11.457031 46.640625 -13.625 C 48.941406 -15.800781 50.09375 -19.050781 50.09375 -23.375 L 50.09375 -26.265625 L 34.203125 -26.265625 L 34.203125 -37.046875 L 63.265625 -37.046875 L 63.265625 0 L 50.59375 0 L 50.59375 -9 L 49.625 -9.140625 C 48.25 -5.921875 46.160156 -3.429688 43.359375 -1.671875 C 40.566406 0.0859375 36.976562 0.96875 32.59375 0.96875 Z M 32.59375 0.96875 "/></g></g><g transform="translate(356.495793, 440.711589)"><g><path d="M 21.03125 0.96875 C 16.46875 0.96875 12.984375 -0.257812 10.578125 -2.71875 C 8.179688 -5.1875 6.984375 -8.929688 6.984375 -13.953125 L 6.984375 -70.984375 L 19.703125 -70.984375 L 19.703125 -14.46875 C 19.703125 -11.375 20.984375 -9.828125 23.546875 -9.828125 C 24.285156 -9.828125 25.066406 -9.945312 25.890625 -10.1875 L 26.53125 -10.015625 L 27.6875 -0.234375 C 26.976562 0.140625 26.039062 0.429688 24.875 0.640625 C 23.71875 0.859375 22.4375 0.96875 21.03125 0.96875 Z M 21.03125 0.96875 "/></g></g><g transform="translate(385.603276, 440.711589)"><g><path d="M 13.640625 -56.703125 C 11.335938 -56.703125 9.46875 -57.394531 8.03125 -58.78125 C 6.59375 -60.175781 5.875 -61.976562 5.875 -64.1875 C 5.875 -66.363281 6.59375 -68.144531 8.03125 -69.53125 C 9.46875 -70.925781 11.335938 -71.625 13.640625 -71.625 C 15.171875 -71.625 16.53125 -71.300781 17.71875 -70.65625 C 18.914062 -70.019531 19.84375 -69.140625 20.5 -68.015625 C 21.15625 -66.898438 21.484375 -65.625 21.484375 -64.1875 C 21.484375 -62.75 21.15625 -61.460938 20.5 -60.328125 C 19.84375 -59.191406 18.914062 -58.300781 17.71875 -57.65625 C 16.53125 -57.019531 15.171875 -56.703125 13.640625 -56.703125 Z M 7.296875 0 L 7.296875 -50.640625 L 20.015625 -50.640625 L 20.015625 0 Z M 7.296875 0 "/></g></g><g transform="translate(412.874324, 440.711589)"><g><path d="M 23.6875 0.96875 C 20.226562 0.96875 17.0625 0.5625 14.1875 -0.25 C 11.3125 -1.0625 8.851562 -2.175781 6.8125 -3.59375 C 4.78125 -5.019531 3.273438 -6.65625 2.296875 -8.5 L 9.359375 -16.109375 L 10.328125 -16.109375 C 12.015625 -13.847656 14.003906 -12.148438 16.296875 -11.015625 C 18.597656 -9.890625 21.09375 -9.328125 23.78125 -9.328125 C 26.257812 -9.328125 28.125 -9.769531 29.375 -10.65625 C 30.632812 -11.539062 31.265625 -12.8125 31.265625 -14.46875 C 31.265625 -15.75 30.8125 -16.828125 29.90625 -17.703125 C 29.007812 -18.578125 27.550781 -19.257812 25.53125 -19.75 L 18.828125 -21.34375 C 13.804688 -22.539062 10.140625 -24.367188 7.828125 -26.828125 C 5.515625 -29.296875 4.359375 -32.425781 4.359375 -36.21875 C 4.359375 -39.375 5.160156 -42.113281 6.765625 -44.4375 C 8.378906 -46.769531 10.644531 -48.546875 13.5625 -49.765625 C 16.488281 -50.992188 19.894531 -51.609375 23.78125 -51.609375 C 28.34375 -51.609375 32.125 -50.945312 35.125 -49.625 C 38.125 -48.3125 40.46875 -46.554688 42.15625 -44.359375 L 35.359375 -37 L 34.4375 -37 C 33.03125 -38.59375 31.445312 -39.753906 29.6875 -40.484375 C 27.925781 -41.222656 25.957031 -41.59375 23.78125 -41.59375 C 18.757812 -41.59375 16.25 -40.035156 16.25 -36.921875 C 16.25 -35.597656 16.710938 -34.523438 17.640625 -33.703125 C 18.578125 -32.878906 20.226562 -32.207031 22.59375 -31.6875 L 28.828125 -30.296875 C 33.972656 -29.203125 37.726562 -27.4375 40.09375 -25 C 42.46875 -22.5625 43.65625 -19.296875 43.65625 -15.203125 C 43.65625 -11.984375 42.859375 -9.148438 41.265625 -6.703125 C 39.679688 -4.253906 37.390625 -2.363281 34.390625 -1.03125 C 31.390625 0.300781 27.820312 0.96875 23.6875 0.96875 Z M 23.6875 0.96875 "/></g></g><g transform="translate(459.565665, 440.711589)"><g><path d="M 34.9375 -12.078125 L 38.25 -2.65625 C 36.875 -1.53125 35.144531 -0.644531 33.0625 0 C 30.976562 0.644531 28.617188 0.96875 25.984375 0.96875 C 20.503906 0.96875 16.34375 -0.519531 13.5 -3.5 C 10.65625 -6.488281 9.234375 -10.832031 9.234375 -16.53125 L 9.234375 -40.59375 L 1.515625 -40.59375 L 1.515625 -50.6875 L 9.234375 -50.6875 L 9.234375 -60.5625 L 21.953125 -62.625 L 21.953125 -50.6875 L 36.3125 -50.6875 L 36.3125 -40.59375 L 21.953125 -40.59375 L 21.953125 -17.453125 C 21.953125 -14.941406 22.46875 -13.109375 23.5 -11.953125 C 24.539062 -10.804688 26.054688 -10.234375 28.046875 -10.234375 C 30.316406 -10.234375 32.289062 -10.847656 33.96875 -12.078125 Z M 34.9375 -12.078125 "/></g></g><g transform="translate(498.911268, 440.711589)"><g><path d="M 50.046875 -22.453125 L 17.5 -22.453125 C 17.863281 -18.046875 19.113281 -14.835938 21.25 -12.828125 C 23.394531 -10.828125 26.320312 -9.828125 30.03125 -9.828125 C 32.9375 -9.828125 35.289062 -10.367188 37.09375 -11.453125 C 38.90625 -12.535156 40.359375 -14.179688 41.453125 -16.390625 L 42.421875 -16.390625 L 50.875 -10.96875 C 49.21875 -7.414062 46.722656 -4.535156 43.390625 -2.328125 C 40.054688 -0.128906 35.601562 0.96875 30.03125 0.96875 C 24.789062 0.96875 20.265625 -0.0234375 16.453125 -2.015625 C 12.648438 -4.003906 9.710938 -6.960938 7.640625 -10.890625 C 5.578125 -14.828125 4.546875 -19.628906 4.546875 -25.296875 C 4.546875 -31.054688 5.628906 -35.910156 7.796875 -39.859375 C 9.972656 -43.804688 12.910156 -46.75 16.609375 -48.6875 C 20.316406 -50.632812 24.484375 -51.609375 29.109375 -51.609375 C 36.273438 -51.609375 41.757812 -49.707031 45.5625 -45.90625 C 49.375 -42.113281 51.28125 -36.546875 51.28125 -29.203125 C 51.28125 -26.535156 51.191406 -24.46875 51.015625 -23 Z M 39.125 -30.671875 C 39 -34.523438 38.101562 -37.332031 36.4375 -39.09375 C 34.769531 -40.851562 32.328125 -41.734375 29.109375 -41.734375 C 22.679688 -41.734375 18.898438 -38.046875 17.765625 -30.671875 Z M 39.125 -30.671875 "/></g></g><g transform="translate(553.958385, 440.711589)"><g><path d="M 7.296875 0 L 7.296875 -50.640625 L 19.65625 -50.640625 L 19.65625 -43.109375 L 20.609375 -42.921875 C 21.835938 -45.742188 23.445312 -47.8125 25.4375 -49.125 C 27.425781 -50.445312 29.84375 -51.109375 32.6875 -51.109375 C 35.5625 -51.109375 37.75 -50.613281 39.25 -49.625 L 37.09375 -38.65625 L 36.140625 -38.46875 C 35.304688 -38.8125 34.503906 -39.054688 33.734375 -39.203125 C 32.972656 -39.359375 32.046875 -39.4375 30.953125 -39.4375 C 27.398438 -39.4375 24.6875 -38.1875 22.8125 -35.6875 C 20.945312 -33.195312 20.015625 -29.195312 20.015625 -23.6875 L 20.015625 0 Z M 7.296875 0 "/></g></g><g transform="translate(593.671276, 440.711589)"><g/></g><g transform="translate(615.846219, 440.711589)"><g><path d="M 35.578125 0.96875 C 26.335938 0.96875 19.484375 -1.226562 15.015625 -5.625 C 10.546875 -10.019531 8.3125 -16.53125 8.3125 -25.15625 L 8.3125 -67.125 L 21.296875 -67.125 L 21.296875 -25.25 C 21.296875 -20.351562 22.472656 -16.679688 24.828125 -14.234375 C 27.191406 -11.785156 30.773438 -10.5625 35.578125 -10.5625 C 45.097656 -10.5625 49.859375 -15.457031 49.859375 -25.25 L 49.859375 -67.125 L 62.859375 -67.125 L 62.859375 -25.15625 C 62.859375 -16.53125 60.625 -10.019531 56.15625 -5.625 C 51.6875 -1.226562 44.828125 0.96875 35.578125 0.96875 Z M 35.578125 0.96875 "/></g></g><g transform="translate(687.008046, 440.711589)"><g><path d="M 8.71875 0 L 8.71875 -67.125 L 22 -67.125 L 22 -39.71875 L 23.46875 -39.71875 L 45.875 -67.125 L 59.453125 -67.125 L 59.453125 -65.984375 L 34.75 -35.453125 L 62.03125 -1.140625 L 62.03125 0 L 47.015625 0 L 23.46875 -28.96875 L 22 -28.96875 L 22 0 Z M 8.71875 0 "/></g></g></g><g fill="#000000" fill-opacity="1"><g transform="translate(749.037145, 440.711589)"><g/></g></g></svg>