
        <svg xmlns="http://www.w3.org/2000/svg" xmlns:xlink="http://www.w3.org/1999/xlink" version="1.1" width="3162.3083859332733" 
        height="849.8943634054067" viewBox="0 0 3162.3083859332733 849.8943634054067">
			
			<g transform="scale(8.11541929666366) translate(10, 10)">
				<defs id="SvgjsDefs3015"></defs><g id="SvgjsG3016" featureKey="PG4fjM-0" transform="matrix(1.0498869308172958,0,0,1.0498869308172958,-23.37744601419116,-9.8689367491825)" fill="#47abff"><path xmlns="http://www.w3.org/2000/svg" d="M77.5,59c-0.8-4.7-2.6-9-4.4-12.9c-5.4-11.9-11.9-22.7-18.3-32.7L54,12c-1.1-1.7-2.4-2.6-3.9-2.6c-2.2,0-3.6,2-4,2.6  c0,0,0,0,0,0.1l-1.4,2.2c-2.5,4-5.1,8.2-7.6,12.4c-3.9,6.6-8.8,15.4-12.4,24.8c-1.2,3.1-2.3,6.2-2.4,9.6c-0.4,8.8,2.8,16.2,9.4,22  c5.1,4.5,11.6,7,18.3,7h0c9.8,0,18.7-5,23.8-13.5C77.2,71,78.5,65,77.5,59z M70.6,74.7C66.2,82.1,58.5,86.4,50,86.4  c-5.8,0-11.5-2.1-15.9-6c-5.7-5-8.5-11.5-8.2-19.1c0.1-2.8,1-5.5,2.2-8.4c3.5-9.2,8.3-17.8,12.1-24.3c2.4-4.1,5-8.3,7.6-12.3  l1.3-2.1c0-0.1,0.1-0.1,0.1-0.2c0.2-0.3,0.6-0.8,0.8-0.9c0,0,0.3,0.1,0.8,0.9l0.8,1.3c6.2,9.8,12.7,20.5,18,32.2  c1.7,3.8,3.4,7.8,4.1,12C74.7,64.7,73.6,69.8,70.6,74.7z M51.8,76.9c0,1-0.8,1.8-1.8,1.8c-9.1,0-16.4-7.4-16.4-16.4  c0-1,0.8-1.8,1.8-1.8c1,0,1.8,0.8,1.8,1.8C37.3,69.3,43,75,50,75C51,75,51.8,75.9,51.8,76.9z"></path></g><g id="SvgjsG3017" featureKey="jxYttZ-0" transform="matrix(2.952091904658613,0,0,2.952091904658613,75.63832591320626,6.361335738317315)" fill="#ffffff"><path d="M9.94 11.6 l6.1 0 l0 8.4 l-2.22 0 l0 -1.92 c-1.38 1.42 -3.3 2.12 -5.4 2.12 c-4.2 0 -7.62 -3.34 -7.62 -7.7 c0 -4.34 3.42 -7.68 7.62 -7.68 c2.2 0 4.18 0.76 5.56 2.3 l-1.46 1.46 c-1.08 -1.2 -2.34 -1.92 -4.1 -1.92 c-3.22 0 -5.38 2.58 -5.38 5.84 c0 2.82 2.06 5.86 5.38 5.86 c1.42 0 2.78 -0.42 3.78 -1.54 c0.84 -0.94 1.38 -2.1 1.56 -3.38 l-3.82 0 l0 -1.84 z M20.92 4.619999999999999 l0 15.38 l-2.08 0 l0 -15.38 l2.08 0 z M26.28 10.12 l0 9.88 l-2.06 0 l0 -9.88 l2.06 0 z M26.380000000000003 6.5 c0 0.64 -0.5 1.14 -1.14 1.14 c-0.62 0 -1.12 -0.5 -1.12 -1.14 c0 -0.62 0.5 -1.12 1.12 -1.12 c0.64 0 1.14 0.5 1.14 1.12 z M36.120000000000005 16.16 c0.04 0.12 0.38 1.1 -0.04 2.1 c-0.52 1.18 -1.9 1.94 -3.62 1.94 l-0.02 0 c-1.38 0 -2.64 -0.58 -3.58 -1.5 l1.34 -1.34 c0.56 0.72 1.36 1.08 2.24 1.08 c0.98 0 1.8 -0.36 2.02 -0.88 c0.14 -0.36 0.02 -0.74 0.02 -0.78 c-0.24 -0.6 -1.12 -0.72 -2.12 -0.94 c-1.34 -0.3 -2.68 -0.64 -3.2 -2.04 c-0.26 -0.72 -0.18 -1.56 0.18 -2.26 c0.82 -1.54 2.86 -1.6 3.1 -1.6 c1.38 0 2.68 0.52 3.6 1.46 l-1.34 1.34 c-0.56 -0.72 -1.38 -1.04 -2.26 -1.04 c-0.02 0 -1.2 0.02 -1.54 0.68 c-0.12 0.2 -0.18 0.54 -0.08 0.82 c0.2 0.56 1.1 0.74 2.06 0.96 c1.3 0.3 2.72 0.6 3.24 2 z M42.38 18.36 c0.64 0.26 1.14 0.08 1.44 -0.06 l0 1.6 c-0.26 0.16 -0.64 0.3 -1.18 0.3 c-1.18 0 -2.22 -0.38 -2.86 -1.42 c-0.6 -1 -0.6 -1.54 -0.6 -3.1 l0 -3.88 l-1.2 0 l0 -1.68 l1.2 0 l0 -3.12 l2.06 0 l0 3.12 l2.58 0 l0 1.68 l-2.58 0 l0 3.88 c0 1.64 0.16 2.24 1.14 2.68 z M55.540000000000006 15.08 l0 0.74 l-7.78 0 c0 1.82 1.74 2.7 3.02 2.7 c0.94 0 1.98 -0.5 2.54 -1.3 l1.42 1.28 c-0.66 0.9 -1.74 1.7 -3.96 1.7 c-3.2 0 -5.16 -2.18 -5.16 -5.12 s1.9 -5.14 4.96 -5.14 s4.46 1.7 4.88 4.18 c0.06 0.32 0.08 0.64 0.08 0.96 z M47.800000000000004 14.120000000000001 l5.58 0 c0 -1.6 -1.28 -2.48 -2.8 -2.48 s-2.78 1.02 -2.78 2.48 z M63.480000000000004 10.24 l-0.44 1.62 c-0.14 -0.08 -0.58 -0.22 -0.94 -0.22 c-1.7 0 -2.5 1.62 -2.5 3.62 l0 4.74 l-2.06 0 l0 -9.88 l2.06 0 l0 1.4 c0.24 -0.92 1.3 -1.58 2.48 -1.58 c0.54 0 1.12 0.14 1.4 0.3 z M80.7 5 l2.22 0 l0 9.12 c0 2.42 -0.96 6.08 -6 6.08 s-6.04 -3.66 -6.04 -6.08 l0 -9.12 l2.22 0 l0 9.12 c0 0.9 0.2 4.24 3.82 4.24 s3.78 -3.34 3.78 -4.24 l0 -9.12 z M99.60000000000001 5 l-7.38 6.2 l7.38 8.8 l-3.1 0 l-5.98 -7.38 l-2.18 1.82 l0 5.56 l-2.22 0 l0 -15 l2.22 0 l0 6.84 l8 -6.84 l3.26 0 z"></path></g>
			</g>
		</svg>
	